<svg width="1392" height="1585" viewBox="0 0 1392 1585" fill="none" xmlns="http://www.w3.org/2000/svg">
<path fill-rule="evenodd" clip-rule="evenodd" d="M1309.94 68.7167C1367.72 73.791 1425.47 92.3504 1467.24 132.679C1506.06 170.163 1507.53 228.62 1527.53 278.789C1549.52 333.931 1601.11 382.513 1590.11 440.861C1578.87 500.467 1527.98 550.061 1472.03 573.2C1420.57 594.48 1365.55 559.245 1309.94 556.717C1258.14 554.361 1203.12 584.884 1158.2 558.932C1112.28 532.405 1093.22 475.893 1080.68 424.283C1068.87 375.624 1082.2 327.487 1089.99 278.021C1099.54 217.379 1086.83 145.448 1131.25 103.173C1176.34 60.2678 1248 63.2772 1309.94 68.7167Z" fill="#8633B0"/>
<path fill-rule="evenodd" clip-rule="evenodd" d="M1479.77 412.787C1447.05 422.451 1416.14 429.773 1382.43 435.01C1334.34 442.481 1283.03 474.101 1240.8 449.914C1198.48 425.667 1179.76 368.728 1181.44 319.867C1182.99 274.7 1223.91 243.75 1249.16 206.282C1269.12 176.666 1284.1 144.165 1313.49 123.921C1344.72 102.408 1381 88.5649 1418.87 89.3697C1458.98 90.2222 1494.57 108.866 1529.56 128.513C1574.73 153.882 1634.09 170.489 1650.8 219.619C1667.65 269.148 1645.57 328.371 1610.88 367.546C1579.43 403.073 1525.22 399.366 1479.77 412.787Z" fill="#EB478B"/>
<path fill-rule="evenodd" clip-rule="evenodd" d="M952.695 1091.93C956.329 1026.92 950.791 948.089 1000.85 907.837C1050.94 867.569 1123.77 898.061 1187.28 903.325C1241.25 907.799 1294.04 911.385 1342.48 936.154C1396.04 963.546 1457.44 993.388 1476.73 1051.36C1495.89 1108.94 1450.39 1165.42 1438.6 1225.04C1425.66 1290.48 1447.32 1366.98 1404.36 1417.26C1359.74 1469.47 1284.85 1485.71 1217.06 1484.3C1152.17 1482.94 1087.73 1456.45 1041.69 1409.68C1000.16 1367.5 998.09 1303.05 981.976 1245.52C967.579 1194.12 949.71 1145.31 952.695 1091.93Z" fill="#4754EB"/>
<path fill-rule="evenodd" clip-rule="evenodd" d="M1010.96 1164.07C1036.46 1136.72 1061.53 1112.6 1090.36 1088.94C1131.49 1055.18 1162.56 996.506 1215.34 996.309C1268.25 996.112 1316.7 1040.28 1341.61 1088C1364.63 1132.11 1342.96 1184.39 1339.55 1234.24C1336.85 1273.65 1340.39 1313.06 1323.76 1348.71C1306.08 1386.58 1279.5 1419.92 1243.49 1440.09C1205.34 1461.47 1161.8 1463.31 1118.28 1463.85C1062.09 1464.55 997.323 1481.48 954.987 1443.68C912.308 1405.57 900.955 1336.64 912.306 1279.94C922.599 1228.51 975.535 1202.07 1010.96 1164.07Z" fill="#8633B0"/>
<path fill-rule="evenodd" clip-rule="evenodd" d="M-436.129 1038.56C-450.067 968.693 -479.613 893.36 -445.593 830.441C-410.445 765.439 -335.034 724.343 -260.627 713.978C-191.271 704.316 -126.284 742.365 -66.1845 777.586C-17.4263 806.162 10.9315 853.723 48.712 895.27C92.0657 942.944 155.751 976.541 171.132 1038.56C188.234 1107.51 176.086 1184.71 135.001 1243.19C93.4367 1302.34 24.0335 1343.64 -48.8723 1351.66C-116.09 1359.05 -173.642 1313.12 -234.28 1283.79C-285.029 1259.25 -337.359 1238.11 -372.866 1194.97C-409.712 1150.2 -424.873 1094.97 -436.129 1038.56Z" fill="white"/>
</svg>
