<svg width="465" height="465" viewBox="0 0 465 465" fill="none" xmlns="http://www.w3.org/2000/svg">
<g clip-path="url(#clip0_39_1214)">
<rect width="465" height="465" rx="232.5" fill="#F2F2F2"/>
<path fill-rule="evenodd" clip-rule="evenodd" d="M268.901 -27.6412C217.78 -24.6771 175.644 14.6189 143.594 54.5556C116.792 87.9536 117.708 132.947 106.794 174.357C96.691 212.686 72.7498 249.203 82.1413 287.713C91.8224 327.411 129.354 350.897 157.15 380.846C193.289 419.783 217.113 477.099 268.901 488.935C323.237 501.354 387.822 483.489 425.152 442.098C461.295 402.023 440.4 339.183 451.576 286.386C461.067 241.544 494.031 201.675 485.578 156.625C476.621 108.892 442.224 70.8474 405.228 39.3853C365.685 5.75726 320.721 -30.6459 268.901 -27.6412Z" fill="#4754EB"/>
<path fill-rule="evenodd" clip-rule="evenodd" d="M311.162 144.495C268.687 142.401 222.384 118.056 186.744 141.27C151.007 164.548 143.641 214.222 139.007 256.633C135.041 292.936 158.85 324.527 162.756 360.837C168.276 412.158 129.183 476.166 166.458 511.855C202.248 546.122 263.752 517.3 311.162 502.93C347.749 491.841 371.878 461.218 403.658 439.962C437.314 417.451 490.143 413.364 502.663 374.845C515.181 336.328 473.955 302.259 460.872 263.929C448.081 226.456 457.925 177.802 426.979 153.114C395.953 128.362 350.798 146.449 311.162 144.495Z" fill="#8633B0"/>
<path fill-rule="evenodd" clip-rule="evenodd" d="M356.873 209.106C328.522 206.051 305.839 230.483 282.353 246.644C258.166 263.286 229.916 277.164 218.61 304.246C206.894 332.31 207.637 365.965 221.17 393.2C233.918 418.855 262.77 430.268 287.992 443.878C309.785 455.638 332.109 466.818 356.873 466.43C381.376 466.045 403.301 454.526 424.201 441.741C446.88 427.867 478.092 416.071 482.126 389.806C486.226 363.108 454.392 345.626 442.703 321.271C433.284 301.646 433.795 278.827 420.565 261.537C403.437 239.154 384.907 212.127 356.873 209.106Z" fill="#EB478B"/>
</g>
<defs>
<clipPath id="clip0_39_1214">
<rect width="465" height="465" rx="232.5" fill="white"/>
</clipPath>
</defs>
</svg>
