<svg width="489" height="489" viewBox="0 0 489 489" fill="none" xmlns="http://www.w3.org/2000/svg">
<g clip-path="url(#clip0_35_21)">
<rect width="489" height="489" rx="244.5" fill="#F2F2F2"/>
<path fill-rule="evenodd" clip-rule="evenodd" d="M26.8697 815.547C-36.0841 833.22 -98.4341 794.982 -159.1 770.66C-218.72 746.757 -285.537 729.139 -321.421 675.913C-357.549 622.325 -353.601 553.301 -349.107 488.829C-344.685 425.396 -341.666 354.715 -295.944 310.455C-251.489 267.421 -180.988 278.095 -120.079 267.126C-65.5309 257.302 -9.0144 226.319 41.192 249.738C90.8008 272.879 93.2807 342.236 129.278 383.443C174.993 435.773 271.079 452.449 278.609 521.512C285.916 588.536 205.558 629.358 161.677 680.612C119.294 730.116 89.6363 797.928 26.8697 815.547Z" fill="#EB478B"/>
<path fill-rule="evenodd" clip-rule="evenodd" d="M50.6408 491.821C66.0007 551.994 127.062 585.12 175.876 623.469C223.849 661.157 270.072 707.749 330.892 711.988C392.126 716.257 447.025 680.231 497.921 645.917C547.996 612.157 604.7 576.108 619.392 517.482C633.677 460.481 591.418 407.561 571.515 352.253C553.692 302.72 552.337 241.52 509.232 211.346C466.639 181.53 408.414 212.427 357.426 202.387C292.673 189.636 233.327 118.522 172.945 145.125C114.346 170.944 118.93 256.426 97.6108 316.859C77.0196 375.229 35.3265 431.826 50.6408 491.821Z" fill="#8633B0"/>
<path fill-rule="evenodd" clip-rule="evenodd" d="M189.975 323.353C231.582 289.396 275.216 247.944 328.92 249.906C383.523 251.901 422.138 300.073 465.522 333.422C513.345 370.184 578.201 395.932 594.467 454.031C610.917 512.789 582.45 576.251 547.461 626.093C516.353 670.404 460.73 684.083 413.914 711.227C366.981 738.438 327.26 791.427 273.338 785.026C219.454 778.629 194.212 716.476 153.641 680.328C112.72 643.867 44.6121 626.468 34.8529 572.538C25.0773 518.517 79.3668 476.462 108.33 429.935C132.579 390.982 154.444 352.351 189.975 323.353Z" fill="#4754EB"/>
<path fill-rule="evenodd" clip-rule="evenodd" d="M397.692 118.805C425.68 90.1444 470.475 91.333 510.113 85.6539C549.067 80.0728 589.916 68.953 625.26 86.201C660.843 103.566 679.893 141.398 697.257 176.982C714.342 211.992 734.392 250.418 723.691 287.907C713.287 324.358 672.611 340.29 643.655 364.769C617.722 386.69 597.227 420.442 563.415 423.396C530.005 426.314 507.444 390.275 475.722 379.439C435.436 365.677 379.347 386.264 354.197 351.927C329.788 318.604 359.919 272.33 367.501 231.693C374.824 192.445 369.787 147.381 397.692 118.805Z" fill="white"/>
</g>
<defs>
<clipPath id="clip0_35_21">
<rect width="489" height="489" rx="244.5" fill="white"/>
</clipPath>
</defs>
</svg>
